# xmcd CD database file
#
# Track frame offsets:
#	150
#	13121
#	26351
#	40411
#	54664
#	65906
#	78599
#	90021
#	102329
#	114273
#	127078
#	140693
#	154585
#	168145
#	180697
#	193772
#	207802
#	220125
#	232862
#	244205
#	257979
#	271415
#	282410
#	296450
#	307945
#
# Disc length: 4302 seconds
#
# Revision: 1
# Processed by: cddbd v1.5.2PL0 Copyright (c) Steve Scherf et al.
# Submitted via: CDex 1.51
#
DISCID=6610cc19
DTITLE=Billie Holiday - Kind Of Holiday [CD1] - Early Great Vol.1
DYEAR=2009
DGENRE=Jazz
TTITLE0=What A Little Moonlight Can Do (Woods)
TTITLE1=Miss Brown To You (Whiting)
TTITLE2=Eeny Meeny Miney Mo (Malneck)
TTITLE3=These Foolish Things (Strachey)
TTITLE4=No Regrets (Ingra/Tobias)           
TTITLE5=Summertime (Gershwin) 
TTITLE6=Billie's Blues (Holiday)
TTITLE7=A Fine Romance (Kern)
TTITLE8=One Two Buffon Your Shoe (Johnstone)
TTITLE9=The Way You Look Tonigh (Kern)
TTITLE10=Who Loves You (Coots)
TTITLE11=Pennies From Heaven (Johnston)
TTITLE12=That's Life I Guess (Lewis/Rose)
TTITLE13=I've Got My Love To Keep Me Warm (Berlin)
TTITLE14=If My Heart Could Only Talk (Samuels)
TTITLE15=This Year's Kisses (Berlin)
TTITLE16=Why Was I Born (Kern)
TTITLE17=I Must Have That Man (McHugh/Fields)
TTITLE18=Sentimental And Melancholy (Whiting)
TTITLE19=(This Is) My Last Affair (Johnson)
TTITLE20=Carelessly (Ellis)
TTITLE21=How Could You (Warren)
TTITLE22=Moanin' Low (Rainger)
TTITLE23=Let's Call The Whole Thing Off (Gershwin)
TTITLE24=Yours And Mine (Freed)
EXTD=YEAR: 2009
EXTT0=
EXTT1=
EXTT2=
EXTT3=
EXTT4=
EXTT5=
EXTT6=
EXTT7=
EXTT8=
EXTT9=
EXTT10=
EXTT11=
EXTT12=
EXTT13=
EXTT14=
EXTT15=
EXTT16=
EXTT17=
EXTT18=
EXTT19=
EXTT20=
EXTT21=
EXTT22=
EXTT23=
EXTT24=
PLAYORDER=
